<svg id="svg5" width="16" height="16" inkscape:export-filename="Pokéball.png" inkscape:export-xdpi="384" inkscape:export-ydpi="384" inkscape:version="1.2.2 (732a01da63, 2022-12-09)" sodipodi:docname="Pokéball Mask.svgz" version="1.1" viewBox="0 0 16 16" xml:space="preserve" xmlns="http://www.w3.org/2000/svg" xmlns:cc="http://creativecommons.org/ns#" xmlns:dc="http://purl.org/dc/elements/1.1/" xmlns:inkscape="http://www.inkscape.org/namespaces/inkscape" xmlns:rdf="http://www.w3.org/1999/02/22-rdf-syntax-ns#" xmlns:sodipodi="http://sodipodi.sourceforge.net/DTD/sodipodi-0.dtd"><title id="title23110">Pokéball</title><sodipodi:namedview id="namedview7" bordercolor="#666666" borderopacity="1.0" inkscape:current-layer="svg5" inkscape:cx="4.3125" inkscape:cy="12.34375" inkscape:deskcolor="#d1d1d1" inkscape:document-units="px" inkscape:pagecheckerboard="0" inkscape:pageopacity="0.0" inkscape:showpageshadow="2" inkscape:window-height="1216" inkscape:window-maximized="1" inkscape:window-width="2304" inkscape:window-x="-11" inkscape:window-y="1111" inkscape:zoom="32" pagecolor="#ffffff" showgrid="false"/><style>#pokeball{fill:#df2f2f;}</style><path id="pokeball" fill="currentColor" d="m8 1c-3.6943292-5e-8 -6.6294647 2.875562-6.8984375 6.5h4.4492187c0.2334409-1.1372979 1.245621-2 2.4492188-2s2.215778 0.8627021 2.449219 2h4.449219c-0.268975-3.6244376-3.204111-6.4999997-6.898438-6.5zm0 5.5c-0.8341132 0-1.5 0.6658868-1.5 1.5s0.6658868 1.5 1.5 1.5 1.5-0.6658868 1.5-1.5-0.6658868-1.5-1.5-1.5zm0 0.75a0.75 0.75 0 0 1 0.75 0.75 0.75 0.75 0 0 1-0.75 0.75 0.75 0.75 0 0 1-0.75-0.75 0.75 0.75 0 0 1 0.75-0.75zm-6.8984375 1.25c0.2689731 3.624436 3.2041085 6.5 6.8984375 6.5 3.694327 0 6.629463-2.875564 6.898438-6.5h-4.449219c-0.233441 1.1372979-1.2456212 2-2.449219 2s-2.2157779-0.8627021-2.4492188-2h-4.4492187z" style="paint-order:fill markers stroke;stroke-width:3.35221" inkscape:label="Pokéball"/><metadata id="metadata23108"><rdf:RDF><cc:Work rdf:about=""><dc:title>Pokéball</dc:title></cc:Work></rdf:RDF></metadata></svg>
